name c:\Users\T11648sTb\Documents\VSCODE\Pred_Sim_Sprinting\Pred_Sim_Sprinting\MainFunctions\ExperimentalData\IK_Splined\Splined_500_meshInts_p02_maxVel_01.mot
datacolumns 38
datarows 12
range 0.22433667 0.22568247
endheader
                time	/jointset/ground_pelvis/pelvis_tilt/value	/jointset/ground_pelvis/pelvis_list/value	/jointset/ground_pelvis/pelvis_rotation/value	/jointset/ground_pelvis/pelvis_tx/value	/jointset/ground_pelvis/pelvis_ty/value	/jointset/ground_pelvis/pelvis_tz/value	/jointset/hip_r/hip_flexion_r/value	/jointset/hip_r/hip_adduction_r/value	/jointset/hip_r/hip_rotation_r/value	/jointset/knee_r/knee_angle_r/value	/jointset/ankle_r/ankle_angle_r/value	/jointset/subtalar_r/subtalar_angle_r/value	/jointset/mtp_r/mtp_angle_r/value	/jointset/hip_l/hip_flexion_l/value	/jointset/hip_l/hip_adduction_l/value	/jointset/hip_l/hip_rotation_l/value	/jointset/knee_l/knee_angle_l/value	/jointset/ankle_l/ankle_angle_l/value	/jointset/subtalar_l/subtalar_angle_l/value	/jointset/mtp_l/mtp_angle_l/value	/jointset/back/lumbar_extension/value	/jointset/back/lumbar_bending/value	/jointset/back/lumbar_rotation/value	/jointset/acromial_r/arm_flex_r/value	/jointset/acromial_r/arm_add_r/value	/jointset/acromial_r/arm_rot_r/value	/jointset/elbow_r/elbow_flex_r/value	/jointset/radioulnar_r/pro_sup_r/value	/jointset/radius_hand_r/wrist_flex_r/value	/jointset/radius_hand_r/wrist_dev_r/value	/jointset/acromial_l/arm_flex_l/value	/jointset/acromial_l/arm_add_l/value	/jointset/acromial_l/arm_rot_l/value	/jointset/elbow_l/elbow_flex_l/value	/jointset/radioulnar_l/pro_sup_l/value	/jointset/radius_hand_l/wrist_flex_l/value	/jointset/radius_hand_l/wrist_dev_l/value	
          0.22433667	         -1.75713780	          2.75347354	          5.31004857	         -0.19800087	          1.00032097	          0.31091799	        -10.57128031	         -1.07951773	        -10.32838925	        -82.54009255	        -36.29177760	        -26.17139659	         -8.38086120	         53.65039709	          6.29357265	          6.51075121	        -25.61083600	        -10.67864909	         -4.24862283	          6.34185303	        -11.28061003	        -13.84741285	          2.78745027	         12.82297177	        -20.96588907	         15.09245075	        149.97008247	         56.88908303	        -20.78052438	         15.03219633	        -59.23586912	         -6.41855266	        -46.69240022	         79.27200007	         61.25950767	          9.25802366	         24.84724973	
          0.22440614	         -1.75011316	          2.74599159	          5.31872902	         -0.19734045	          1.00034312	          0.31092172	        -10.54420502	         -1.06916086	        -10.33388158	        -82.61283422	        -36.27964218	        -26.17372108	         -8.38017943	         53.61463496	          6.28432342	          6.49660879	        -25.57583447	        -10.68984321	         -4.24602076	          6.33985675	        -11.30410294	        -13.84171682	          2.80064079	         12.73647169	        -20.96801385	         15.01592620	        149.95927549	         56.88471119	        -20.78806749	         15.03755560	        -59.18819024	         -6.44314705	        -46.65439346	         79.30270895	         61.26555978	          9.26134255	         24.85253775	
          0.22462561	         -1.72789756	          2.72259679	          5.34628826	         -0.19525417	          1.00041271	          0.31093324	        -10.45850179	         -1.03672536	        -10.35140750	        -82.84255096	        -36.24112644	        -26.18009064	         -8.37725919	         53.50187536	          6.25532917	          6.45129186	        -25.46624717	        -10.72513082	         -4.23795828	          6.33340352	        -11.37843393	        -13.82380036	          2.84209905	         12.46329502	        -20.97413686	         14.77374988	        149.92442290	         56.87064642	        -20.81193142	         15.05477661	        -59.03724793	         -6.52092930	        -46.53365221	         79.39948750	         61.28475726	          9.27181596	         24.86929291	
          0.22478467	         -1.71177623	          2.70587548	          5.36638675	         -0.19374248	          1.00046275	          0.31094133	        -10.39624209	         -1.01349487	        -10.36427514	        -83.00892508	        -36.21305129	        -26.18379521	         -8.37442298	         53.42037403	          6.23453570	          6.41785603	        -25.38777658	        -10.75062583	         -4.23226742	          6.32858954	        -11.43240230	        -13.81089308	          2.87193413	         12.26544509	        -20.97801598	         14.59788127	        149.89848524	         56.86021675	        -20.82925511	         15.06753121	        -58.92757368	         -6.57736747	        -46.44552676	         79.46938749	         61.29873971	          9.27939414	         24.88148019	
          0.22478557	         -1.71168519	          2.70578166	          5.36650049	         -0.19373395	          1.00046303	          0.31094137	        -10.39589033	         -1.01336442	        -10.36434817	        -83.00986388	        -36.21289245	        -26.18381397	         -8.37440527	         53.41991453	          6.23441886	          6.41766591	        -25.38733594	        -10.75076953	         -4.23223567	          6.32856204	        -11.43270714	        -13.81082042	          2.87210202	         12.26432871	        -20.97803655	         14.59688781	        149.89833721	         56.86015732	        -20.82935295	         15.06760385	        -58.92695399	         -6.57768618	        -46.44502789	         79.46978144	         61.29881879	          9.27943688	         24.88154908	
          0.22485503	         -1.70463921	          2.69854194	          5.37531054	         -0.19307388	          1.00048478	          0.31094484	        -10.36866296	         -1.00329418	        -10.37001210	        -83.08248968	        -36.20059001	        -26.18519321	         -8.37297748	         53.38438101	          6.22539733	          6.40290916	        -25.35332071	        -10.76188145	         -4.22979132	          6.32642373	        -11.45630092	        -13.80520466	          2.88507366	         12.17796608	        -20.97958274	         14.51999690	        149.88682804	         56.85554056	        -20.83692556	         15.07324664	        -58.87898540	         -6.60234910	        -46.40637993	         79.50024220	         61.30494272	          9.28274297	         24.88688278	
          0.22507451	         -1.68235274	          2.67591639	          5.40327680	         -0.19098870	          1.00055309	          0.31095552	        -10.28248475	         -0.97177551	        -10.38808691	        -83.31183847	        -36.16155593	        -26.18862020	         -8.36772437	         53.27233836	          6.19712889	          6.35567684	        -25.24684862	        -10.79690178	         -4.22223161	          6.31952616	        -11.53094927	        -13.78754489	          2.92582695	         11.90526065	        -20.98388438	         14.27671909	        149.84973406	         56.84070991	        -20.86088017	         15.09136476	        -58.72713392	         -6.68033399	        -46.28362365	         79.59622608	         61.32435983	          9.29317557	         24.90377999	
          0.22523357	         -1.66617681	          2.65975628	          5.42366796	         -0.18947781	          1.00060220	          0.31096300	        -10.21988607	         -0.94922010	        -10.40135871	        -83.47794415	        -36.13311400	        -26.19023397	         -8.36322042	         53.19135153	          6.17686753	          6.32087721	        -25.17063472	        -10.82219587	         -4.21690930	          6.31439434	        -11.58514635	        -13.77482651	          2.95513835	         11.70778732	        -20.98644990	         14.10010538	        149.82215037	         56.82973271	        -20.87826719	         15.10477078	        -58.61680665	         -6.73690583	        -46.19404817	         79.66553995	         61.33849459	          9.30072385	         24.91606803	
          0.22523447	         -1.66608545	          2.65966564	          5.42378335	         -0.18946929	          1.00060247	          0.31096304	        -10.21953242	         -0.94909348	        -10.40143403	        -83.47888142	        -36.13295311	        -26.19024103	         -8.36319336	         53.19089493	          6.17675371	          6.32067946	        -25.17020682	        -10.82233842	         -4.21687963	          6.31436506	        -11.58545249	        -13.77475492	          2.95530325	         11.70667316	        -20.98646307	         14.09910784	        149.82199299	         56.82967021	        -20.87836539	         15.10484711	        -58.61618329	         -6.73722525	        -46.19354114	         79.66593058	         61.33857451	          9.30076642	         24.91613749	
          0.22530393	         -1.65901477	          2.65267198	          5.43272059	         -0.18880957	          1.00062382	          0.31096625	        -10.19215841	         -0.93932087	        -10.40727615	        -83.55138953	        -36.12049285	        -26.19071832	         -8.36104338	         53.15558474	          6.16796616	          6.30533361	        -25.13717680	        -10.83336069	         -4.21459734	          6.31208907	        -11.60914581	        -13.76922242	          2.96804281	         11.62048432	        -20.98743730	         14.02190569	        149.80975925	         56.82481635	        -20.88596502	         15.11077470	        -58.56793109	         -6.76194305	        -46.15426270	         79.69613268	         61.34476311	          9.30405935	         24.92151462	
          0.22552341	         -1.63664681	          2.63082777	          5.46108631	         -0.18672548	          1.00069083	          0.31097609	        -10.10552245	         -0.90875374	        -10.42592065	        -83.78036455	        -36.08096948	        -26.19133958	         -8.35353267	         53.04424237	          6.14044341	          6.25626567	        -25.03381651	        -10.86809018	         -4.20755403	          6.30476091	        -11.68410733	        -13.75182872	          3.00804939	         11.34836494	        -20.98993857	         13.77770052	        149.77035318	         56.80924452	        -20.91000251	         15.12979400	        -58.41518975	         -6.84008741	        -46.02952527	         79.79128860	         61.36437733	          9.31445006	         24.93854673	
          0.22568247	         -1.62040857	          2.61523764	          5.48176466	         -0.18521539	          1.00073900	          0.31098297	        -10.04259730	         -0.88689855	        -10.43961169	        -83.94619757	        -36.05218183	        -26.19096172	         -8.34741556	         52.96375797	          6.12072854	          6.22016006	        -24.95985681	        -10.89316630	         -4.20261013	          6.29932123	        -11.73853011	        -13.73930605	          3.03680685	         11.15135144	        -20.99120569	         13.60046793	        149.74107220	         56.79773770	        -20.92744721	         15.14385438	        -58.30422345	         -6.89676165	        -45.93852431	         79.85999225	         61.37864805	          9.32196763	         24.95093036	
